<svg width="200" height="120" viewBox="0 0 200 120" xmlns="http://www.w3.org/2000/svg">
  <defs>
    <linearGradient id="controllerGradient" x1="0%" y1="0%" x2="100%" y2="100%">
      <stop offset="0%" style="stop-color:#00ff88;stop-opacity:1" />
      <stop offset="100%" style="stop-color:#00d4ff;stop-opacity:1" />
    </linearGradient>
    <linearGradient id="shadowGradient" x1="0%" y1="0%" x2="100%" y2="100%">
      <stop offset="0%" style="stop-color:#000000;stop-opacity:0.3" />
      <stop offset="100%" style="stop-color:#000000;stop-opacity:0.1" />
    </linearGradient>
  </defs>
  
  <!-- Background circle -->
  <circle cx="100" cy="60" r="55" fill="url(#shadowGradient)" opacity="0.2"/>
  
  <!-- Left Controller -->
  <g transform="translate(30, 30)">
    <!-- Controller body -->
    <rect x="0" y="15" width="50" height="30" rx="15" ry="15" fill="url(#controllerGradient)" stroke="#ffffff" stroke-width="1"/>
    <!-- Left analog stick -->
    <circle cx="12" cy="25" r="6" fill="#ffffff" opacity="0.9"/>
    <circle cx="12" cy="25" r="3" fill="#333333"/>
    <!-- Right analog stick -->
    <circle cx="38" cy="35" r="6" fill="#ffffff" opacity="0.9"/>
    <circle cx="38" cy="35" r="3" fill="#333333"/>
    <!-- D-pad -->
    <rect x="8" y="35" width="8" height="2" fill="#ffffff" opacity="0.9"/>
    <rect x="11" y="32" width="2" height="8" fill="#ffffff" opacity="0.9"/>
    <!-- Action buttons -->
    <circle cx="42" cy="20" r="3" fill="#ffffff" opacity="0.9"/>
    <circle cx="35" cy="18" r="3" fill="#ffffff" opacity="0.9"/>
    <circle cx="45" cy="15" r="3" fill="#ffffff" opacity="0.9"/>
    <circle cx="38" cy="13" r="3" fill="#ffffff" opacity="0.9"/>
  </g>
  
  <!-- Right Controller (slightly offset and rotated) -->
  <g transform="translate(120, 35) rotate(10)">
    <!-- Controller body -->
    <rect x="0" y="15" width="50" height="30" rx="15" ry="15" fill="url(#controllerGradient)" stroke="#ffffff" stroke-width="1"/>
    <!-- Left analog stick -->
    <circle cx="12" cy="25" r="6" fill="#ffffff" opacity="0.9"/>
    <circle cx="12" cy="25" r="3" fill="#333333"/>
    <!-- Right analog stick -->
    <circle cx="38" cy="35" r="6" fill="#ffffff" opacity="0.9"/>
    <circle cx="38" cy="35" r="3" fill="#333333"/>
    <!-- D-pad -->
    <rect x="8" y="35" width="8" height="2" fill="#ffffff" opacity="0.9"/>
    <rect x="11" y="32" width="2" height="8" fill="#ffffff" opacity="0.9"/>
    <!-- Action buttons -->
    <circle cx="42" cy="20" r="3" fill="#ffffff" opacity="0.9"/>
    <circle cx="35" cy="18" r="3" fill="#ffffff" opacity="0.9"/>
    <circle cx="45" cy="15" r="3" fill="#ffffff" opacity="0.9"/>
    <circle cx="38" cy="13" r="3" fill="#ffffff" opacity="0.9"/>
  </g>
  
  <!-- Sparkle effects -->
  <g opacity="0.8">
    <circle cx="60" cy="25" r="2" fill="#00ff88">
      <animate attributeName="opacity" values="0;1;0" dur="2s" repeatCount="indefinite"/>
    </circle>
    <circle cx="140" cy="80" r="1.5" fill="#00d4ff">
      <animate attributeName="opacity" values="0;1;0" dur="1.5s" repeatCount="indefinite" begin="0.5s"/>
    </circle>
    <circle cx="170" cy="30" r="1" fill="#00ff88">
      <animate attributeName="opacity" values="0;1;0" dur="1.8s" repeatCount="indefinite" begin="1s"/>
    </circle>
  </g>
  
  <!-- Plus sign between controllers -->
  <g transform="translate(95, 55)">
    <rect x="-8" y="-1" width="16" height="2" fill="#00ff88" opacity="0.9"/>
    <rect x="-1" y="-8" width="2" height="16" fill="#00ff88" opacity="0.9"/>
  </g>
</svg>